<svg xmlns="http://www.w3.org/2000/svg" width="40" height="40" viewBox="0 0 40 40">
  <g id="Group_1045" data-name="Group 1045" transform="translate(-163 -121)">
    <g id="Path_508" data-name="Path 508" transform="translate(163 121)" fill="none" stroke-linecap="round">
      <path d="M4,0H36a4,4,0,0,1,4,4V36a4,4,0,0,1-4,4H4a4,4,0,0,1-4-4V4A4,4,0,0,1,4,0Z" stroke="none"/>
      <path d="M 4 1.5 C 2.621498107910156 1.5 1.5 2.621498107910156 1.5 4 L 1.5 36 C 1.5 37.37850189208984 2.621498107910156 38.5 4 38.5 L 36 38.5 C 37.37850189208984 38.5 38.5 37.37850189208984 38.5 36 L 38.5 4 C 38.5 2.621498107910156 37.37850189208984 1.5 36 1.5 L 4 1.5 M 4 0 L 36 0 C 38.20914077758789 0 40 1.790859222412109 40 4 L 40 36 C 40 38.20914077758789 38.20914077758789 40 36 40 L 4 40 C 1.790859222412109 40 0 38.20914077758789 0 36 L 0 4 C 0 1.790859222412109 1.790859222412109 0 4 0 Z" stroke="none" fill="rgba(0,0,0,0)"/>
    </g>
    <g id="Group_1042" data-name="Group 1042" transform="translate(172.9 138.736)">
      <line id="Line_1" data-name="Line 1" x2="20" transform="translate(3.029 9.071) rotate(-45)" fill="none" stroke="#000" stroke-linecap="round" stroke-width="1.5"/>
      <line id="Line_2" data-name="Line 2" y1="20" transform="translate(3.029 -5.071) rotate(-45)" fill="none" stroke="#000" stroke-linecap="round" stroke-width="1.5"/>
      <line id="Line_39" data-name="Line 39" x2="20" transform="translate(0.1 9.6)" fill="none" stroke="#000" stroke-linecap="round" stroke-width="1.5" opacity="0"/>
    </g>
  </g>
</svg>
