<svg style='color: yellow;' id="Group_8" data-name="Group 8" xmlns="http://www.w3.org/2000/svg" width="14.469" height="17.325" viewBox="0 0 14.469 17.325">
  <path id="Path_1" data-name="Path 1" d="M17.466,1.982c-.235.952-.5,2.442-.722,3.24a4.7,4.7,0,0,1-.3.866.387.387,0,0,1-.472.238.474.474,0,0,1-.258-.279.79.79,0,0,1,.014-.406c.36-1.534.717-3.07,1.1-4.6C16.911.7,17.01.19,17.377.033a.427.427,0,0,1,.454.083,1,1,0,0,1,.261.473c.281,1.692.553,3.385.826,5.077a.627.627,0,0,1-.31.7c-.221.087-.469-.114-.538-.484-.111-.592-.2-1.189-.285-1.785-.061-.442-.018-.2-.319-2.116" transform="translate(-9.722 0)" fill="#96082b"/>
  <path id="Path_2" data-name="Path 2" d="M18,30.5a3.563,3.563,0,0,1,.179-.831.377.377,0,0,1,.521-.24c.424.172.242.738.185,1.074-.234,1.374-.51,2.74-.78,4.108a2.048,2.048,0,0,1-.224.654.45.45,0,0,1-.824.008,2.044,2.044,0,0,1-.206-.659q-.4-2.193-.788-4.39a1.351,1.351,0,0,1,.016-.55.335.335,0,0,1,.489-.228c.234.111.292.425.331.651.059.345.442,2.756.609,3.428.051-.294.441-2.729.492-3.024" transform="translate(-9.942 -18.208)" fill="#96082b"/>
  <path id="Path_3" data-name="Path 3" d="M1.73,21.057c1.354.326,2.825.621,3.23.719a.511.511,0,0,1,.433.472c.017.229-.284.443-.63.369q-2.105-.445-4.2-.946C.3,21.61.01,21.479,0,21.138c-.011-.419.329-.53.642-.606,1.26-.306,2.523-.6,3.788-.884.307-.07.832-.189.98.2a.387.387,0,0,1-.048.363.656.656,0,0,1-.31.2c-.331.123-2.635.506-3.323.651" transform="translate(0 -12.128)" fill="#96082b"/>
  <path id="Path_4" data-name="Path 4" d="M28.125,21.076c-1.208-.4-1.8-.536-2.333-.761a6.064,6.064,0,0,1-.754-.33.32.32,0,0,1-.142-.4c.094-.243.368-.239.581-.181l1.025.281c.683.187,1.366.376,2.047.572l.652.191a.824.824,0,0,1,.52.32.557.557,0,0,1-.035.683,1.567,1.567,0,0,1-.682.3q-1.622.376-3.252.716c-.3.063-.909.194-.969-.263-.064-.483.782-.587,1.094-.664.67-.164,2.2-.485,2.248-.47" transform="translate(-15.352 -12.002)" fill="#96082b"/>
  <path id="Path_5" data-name="Path 5" d="M8.236,30.861c.062.267-.215.483-.387.65A4.015,4.015,0,0,1,7.23,32c-.228.148-.718.527-.943.179-.207-.319.154-.588.364-.762a9.48,9.48,0,0,1,.924-.647.6.6,0,0,1,.447-.138.287.287,0,0,1,.214.223" transform="translate(-3.857 -18.975)" fill="#96082b"/>
  <path id="Path_6" data-name="Path 6" d="M27.8,30.981a1.514,1.514,0,0,1,.53.326c.245.187.488.377.724.576.161.135.366.366.236.586a.371.371,0,0,1-.508.1,12.851,12.851,0,0,1-1.285-.993.35.35,0,0,1-.008-.489.322.322,0,0,1,.312-.1" transform="translate(-16.974 -19.19)" fill="#96082b"/>
  <path id="Path_7" data-name="Path 7" d="M8.445,12.616c-.143.094-.4-.01-.536-.085a4.676,4.676,0,0,1-.559-.43c-.192-.151-.52-.324-.46-.617a.375.375,0,0,1,.145-.223c.209-.156.416-.008.579.127.2.169.407.337.607.511a1.212,1.212,0,0,1,.25.265.411.411,0,0,1,.053.349.2.2,0,0,1-.078.1" transform="translate(-4.265 -6.936)" fill="#96082b"/>
  <path id="Path_8" data-name="Path 8" d="M29.361,11.488a.507.507,0,0,1-.15.466,4.754,4.754,0,0,1-.738.71c-.184.132-.426.283-.642.127a.313.313,0,0,1-.126-.219c-.023-.235.241-.5.385-.665a2.671,2.671,0,0,1,.625-.514.446.446,0,0,1,.606.03.22.22,0,0,1,.042.066" transform="translate(-17.163 -6.994)" fill="#96082b"/>
</svg>