<svg id="Group_189" data-name="Group 189" xmlns="http://www.w3.org/2000/svg" width="30.001" height="30" viewBox="0 0 30.001 30">
  <path id="Path_774" data-name="Path 774" d="M13.291,31.358A15.788,15.788,0,0,1,9.6,30.915a1,1,0,0,1-.766-.972V22.367H6.85a1,1,0,0,1-1-1V16.988a1,1,0,0,1,1-1H8.836V14.608a9.945,9.945,0,0,1,.322-2.576A6.354,6.354,0,0,1,11.743,8.2a9.1,9.1,0,0,1,5.14-1.269,15.512,15.512,0,0,1,3.391.41,1,1,0,0,1,.691.956l-.021,3.985a1,1,0,0,1-1.07.992c-.472-.033-.935-.05-1.378-.05-.192,0-.384,0-.573.009-.205.01-.425.038-.615.065-1.037.168-1.251.865-1.271,2.01,0,.052,0,.1,0,.141v.536h3.7a1,1,0,0,1,.984,1.179l-.8,4.379a1,1,0,0,1-.984.821h-2.9v8.884c0,.5-.371-.075-.868-.009A14.1,14.1,0,0,1,13.291,31.358Zm-2.455-1.225a13.655,13.655,0,0,0,2.455.225q.384,0,.743-.019V21.367a1,1,0,0,1,1-1H18.1l.433-2.379h-3.5a1,1,0,0,1-1-1V15.437q0-.016,0-.033c0-.037,0-.079,0-.126a5.182,5.182,0,0,1,.372-2.045A3.233,3.233,0,0,1,17,11.324l.019,0c.257-.036.533-.071.814-.083h.013c.213-.007.43-.011.647-.011q.224,0,.454.005l.011-2.119a15.176,15.176,0,0,0-2.078-.18,7.218,7.218,0,0,0-4.038.938l-.01.007a4.369,4.369,0,0,0-1.747,2.677,7.944,7.944,0,0,0-.252,2.053v2.381a1,1,0,0,1-1,1H7.85v2.379H9.836a1,1,0,0,1,1,1Z" transform="translate(1.715 -1.983)" fill="#fff"/>
  <path id="Path_775" data-name="Path 775" d="M15.006,3.175a15,15,0,0,0-3.6,29.568,15.441,15.441,0,0,0,3.6.431,14.076,14.076,0,0,0,1.817-.111,14.741,14.741,0,0,0,8.784-4.28,15,15,0,0,0,0-21.216,14.86,14.86,0,0,0-10.6-4.393M24.723,27.9a13.511,13.511,0,0,1-8.056,3.924,14.262,14.262,0,0,1-4.965-.3A13.754,13.754,0,1,1,28.751,18.18,13.611,13.611,0,0,1,24.723,27.9" transform="translate(0 -3.175)" fill="#fff"/>
</svg>
