<svg xmlns="http://www.w3.org/2000/svg" width="29.999" height="30" viewBox="0 0 29.999 30">
  <g id="Group_188" data-name="Group 188" transform="translate(0)">
    <path id="Path_768" data-name="Path 768" d="M58.855,17.1c0-.321,0-.625,0-.924,0-.977,0-1.884-.055-3.038a7.091,7.091,0,0,0-.449-2.334,4.681,4.681,0,0,0-1.108-1.7,4.594,4.594,0,0,0-1.7-1.108,6.9,6.9,0,0,0-2.334-.446c-.8-.051-2.2-.065-3.965-.059s-3.168.008-3.965.059a6.89,6.89,0,0,0-2.333.446A4.584,4.584,0,0,0,41.24,9.1a4.681,4.681,0,0,0-1.108,1.7,7.059,7.059,0,0,0-.449,2.334c-.078,1.507-.046,2.593-.059,3.962h0c0,.321,0,.625,0,.924,0,.977-.005,1.884.055,3.04a7.058,7.058,0,0,0,.449,2.333,4.681,4.681,0,0,0,1.108,1.7,4.584,4.584,0,0,0,1.7,1.108,6.89,6.89,0,0,0,2.333.446c.8.051,2.2.065,3.965.059s3.168-.007,3.965-.059a6.9,6.9,0,0,0,2.334-.446,4.594,4.594,0,0,0,1.7-1.108,4.681,4.681,0,0,0,1.108-1.7,7.09,7.09,0,0,0,.449-2.333c.078-1.508.046-2.594.058-3.964Zm-1.787,3.875v.015a5.427,5.427,0,0,1-.325,1.762l-.009.021-.009.023a2.96,2.96,0,0,1-.705,1.08L56,23.9l-.016.016a2.857,2.857,0,0,1-1.073.688l-.006,0a5.238,5.238,0,0,1-1.752.328h-.033l-.031,0c-.584.038-1.608.058-3.046.058l-.8,0h-.014l-.8,0c-1.438,0-2.463-.02-3.046-.058l-.033,0h-.031a5.232,5.232,0,0,1-1.752-.328l-.006,0a2.863,2.863,0,0,1-1.074-.688l-.015-.016-.016-.016a2.964,2.964,0,0,1-.706-1.08l-.008-.023-.009-.021a5.427,5.427,0,0,1-.325-1.762v-.015c-.054-1.035-.054-1.873-.054-2.761,0-.355,0-.723,0-1.113s0-.759,0-1.114c0-.887,0-1.725.054-2.761v-.015a5.427,5.427,0,0,1,.325-1.762l.009-.021.008-.021a2.958,2.958,0,0,1,.706-1.082l.016-.016.015-.016a2.878,2.878,0,0,1,1.074-.688l.006,0a5.23,5.23,0,0,1,1.75-.328h.033l.033,0c.583-.038,1.608-.058,3.046-.058l.8,0h.014l.8,0c1.439,0,2.463.02,3.047.058l.031,0h.033a5.238,5.238,0,0,1,1.752.328l.006,0a2.873,2.873,0,0,1,1.073.688l.016.016.016.016a2.954,2.954,0,0,1,.705,1.082l.009.021.009.021a5.427,5.427,0,0,1,.325,1.762v.015c.054,1.035.054,1.874.053,2.761,0,.355,0,.723,0,1.114s0,.758,0,1.113c0,.888,0,1.725-.053,2.761" transform="translate(-34.232 -2.094)" fill="#fff"/>
    <path id="Path_769" data-name="Path 769" d="M48.3,11.229a4.936,4.936,0,1,0,4.936,4.936A4.937,4.937,0,0,0,48.3,11.229m0,8.142a3.205,3.205,0,1,1,3.206-3.206A3.209,3.209,0,0,1,48.3,19.371" transform="translate(-33.295 -1.157)" fill="#fff"/>
    <path id="Path_770" data-name="Path 770" d="M51.651,10.151a1.154,1.154,0,1,0,1.154,1.154,1.154,1.154,0,0,0-1.154-1.154" transform="translate(-31.51 -1.427)" fill="#fff"/>
    <path id="Path_771" data-name="Path 771" d="M50.311,3.174a15,15,0,1,0,15,15,15.016,15.016,0,0,0-15-15m0,28.749A13.75,13.75,0,1,1,64.06,18.173a13.766,13.766,0,0,1-13.749,13.75" transform="translate(-35.312 -3.174)" fill="#fff"/>
  </g>
</svg>
